<svg width="24" height="47" viewBox="0 0 24 47" fill="none" xmlns="http://www.w3.org/2000/svg">
<path d="M17.9299 8H23.0399C23.5499 8 23.8999 7.93995 23.8799 7.19995C23.8199 4.80995 23.8799 2.42003 23.8799 0.0300293H12.4999C11.691 0.164375 10.8923 0.354903 10.1099 0.600098C8.66033 1.16703 7.40769 2.14438 6.50537 3.4126C5.60305 4.68081 5.0903 6.18471 5.02991 7.73999C4.95991 10.03 5.02985 12.3201 4.96985 14.6101C4.92772 14.7669 4.84572 14.91 4.73181 15.0256C4.6179 15.1413 4.47594 15.2255 4.31982 15.27C2.97982 15.33 1.64982 15.2701 0.319824 15.3201V23.3201H4.71985C4.75616 23.32 4.79213 23.3274 4.82556 23.3416C4.85899 23.3557 4.88922 23.3764 4.91443 23.4026C4.93964 23.4287 4.95932 23.4597 4.97229 23.4937C4.98526 23.5276 4.99121 23.5638 4.98987 23.6001C4.98987 27.4401 4.98987 31.2801 4.98987 35.1201C4.98987 38.9601 4.98987 42.7899 4.98987 46.6299C4.98987 46.7227 5.02677 46.8118 5.09241 46.8774C5.15804 46.9431 5.24702 46.98 5.33984 46.98C8.66984 46.98 11.9898 46.98 15.3398 46.98C15.4307 46.9518 15.5131 46.9014 15.5795 46.8333C15.6458 46.7651 15.6941 46.6816 15.7198 46.5901C15.7198 38.9034 15.7198 31.2134 15.7198 23.52C15.733 23.4684 15.7592 23.4211 15.796 23.3826C15.8328 23.344 15.879 23.3156 15.9299 23.3H22.5999L23.5999 15.3H16.1699C16.0925 15.2828 16.0208 15.2461 15.9613 15.1936C15.9019 15.1412 15.8566 15.0746 15.8298 15C15.7601 14.5233 15.73 14.0417 15.7399 13.5601C15.7399 12.3901 15.7398 11.2201 15.8298 10.0601C15.8453 9.51171 16.0729 8.9906 16.4645 8.60645C16.8561 8.22229 17.3814 8.00496 17.9299 8Z" fill="#F0FF2E"/>
</svg>
