<svg width="48" height="48" viewBox="0 0 48 48" fill="none" xmlns="http://www.w3.org/2000/svg">
<path d="M47.7 12.78V34.3601C47.7 34.4601 47.7 34.5499 47.7 34.6399C47.6399 35.1199 47.59 35.6401 47.53 36.0901C47.3028 37.7253 46.7374 39.2952 45.87 40.7C45.0371 42.0948 43.948 43.3198 42.66 44.3101C41.0185 45.5745 39.0985 46.4282 37.0601 46.8L35.59 47.03H12.92C12.8561 47.004 12.7887 46.9871 12.72 46.98C11.9185 46.9147 11.125 46.7742 10.35 46.5601C7.95756 45.9137 5.79982 44.5968 4.13086 42.7649C2.4619 40.9329 1.35135 38.6621 0.930054 36.22C0.880054 35.85 0.81 35.4801 0.75 35.1101V11.9399L0.930054 10.8401C1.13099 9.6808 1.48748 8.55386 1.98999 7.48999C2.39158 6.65279 2.87737 5.85882 3.43994 5.12012C4.07946 4.2838 4.81828 3.52827 5.64001 2.87012C6.49447 2.1827 7.43586 1.6109 8.43994 1.16992C9.39874 0.744431 10.4063 0.438879 11.4399 0.26001C11.9399 0.17001 12.44 0.100029 12.95 0.0300293H35.62C35.6696 0.0386148 35.7204 0.0386148 35.77 0.0300293C36.5439 0.0934616 37.3105 0.227252 38.0601 0.429932C39.3914 0.767711 40.6582 1.32188 41.8101 2.07007C43.1745 2.95164 44.3617 4.08097 45.3101 5.3999C45.9149 6.22697 46.4122 7.12769 46.79 8.08008C47.3617 9.46895 47.68 10.9489 47.73 12.45C47.7079 12.5585 47.6978 12.6693 47.7 12.78ZM24.1801 4.23999H15C14.33 4.23999 13.66 4.23999 13 4.23999C11.9988 4.28834 11.0168 4.53294 10.11 4.95996C9.16893 5.37 8.3113 5.9496 7.57996 6.66992C6.66637 7.54884 5.95644 8.61734 5.5 9.80005C5.08497 10.8775 4.88458 12.0256 4.91003 13.1799C4.91003 20.0533 4.91003 26.9267 4.91003 33.8C4.88552 34.9887 5.10155 36.1699 5.54517 37.2729C5.98878 38.376 6.65079 39.3778 7.49146 40.2185C8.33212 41.0592 9.334 41.7212 10.437 42.1648C11.54 42.6084 12.7214 42.8246 13.91 42.8H34.48C35.1515 42.7965 35.8211 42.7296 36.48 42.6001C37.8769 42.3295 39.1815 41.7064 40.27 40.79C41.2083 40.0251 41.975 39.071 42.52 37.99C43.1845 36.683 43.5274 35.2362 43.52 33.77C43.52 26.9167 43.52 20.07 43.52 13.23C43.53 12.7991 43.5099 12.368 43.46 11.9399C43.2642 10.4486 42.7006 9.02944 41.8199 7.81006C40.5738 6.0993 38.7523 4.89546 36.6899 4.41992C35.9315 4.25553 35.1557 4.18504 34.38 4.20996L24.1801 4.23999Z" fill="#F0FF2E"/>
<path d="M36.2801 23.53C36.2821 25.9232 35.5744 28.2632 34.2464 30.2542C32.9185 32.2451 31.03 33.7974 28.8198 34.7151C26.6096 35.6327 24.1769 35.8744 21.8293 35.4094C19.4818 34.9445 17.3248 33.7938 15.6312 32.103C13.9376 30.4122 12.7834 28.2572 12.3145 25.9104C11.8457 23.5636 12.0833 21.1304 12.9973 18.9187C13.9113 16.707 15.4607 14.8161 17.4494 13.4849C19.4382 12.1537 21.777 11.4419 24.1701 11.4399C27.3784 11.4399 30.4556 12.7132 32.726 14.98C34.9965 17.2467 36.2748 20.3217 36.2801 23.53ZM16.2801 23.53C16.2781 25.0965 16.7407 26.6284 17.6093 27.9319C18.478 29.2354 19.7136 30.252 21.16 30.8533C22.6064 31.4545 24.1987 31.6135 25.7354 31.3098C27.2722 31.0062 28.6843 30.2537 29.7933 29.1475C30.9023 28.0412 31.6584 26.6309 31.9659 25.095C32.2734 23.559 32.1187 21.9663 31.5211 20.5183C30.9235 19.0704 29.9098 17.8321 28.6085 16.9602C27.3072 16.0883 25.7765 15.6221 24.2101 15.6201C23.1676 15.6135 22.1341 15.8131 21.1692 16.2078C20.2043 16.6024 19.3271 17.1844 18.5881 17.9197C17.8491 18.655 17.2628 19.5293 16.8633 20.4922C16.4637 21.4551 16.2588 22.4875 16.2601 23.53H16.2801Z" fill="#F0FF2E"/>
<path d="M36.7401 14C36.3396 13.9928 35.9444 13.9068 35.5772 13.7468C35.2099 13.5869 34.8777 13.3562 34.5996 13.0679C34.3215 12.7796 34.1029 12.4392 33.9563 12.0664C33.8097 11.6936 33.7379 11.2956 33.7451 10.895C33.7523 10.4945 33.8383 10.0992 33.9983 9.73194C34.1582 9.36466 34.389 9.03251 34.6774 8.7544C34.9657 8.47629 35.3059 8.2577 35.6787 8.11109C36.0515 7.96449 36.4496 7.89269 36.8501 7.89991C37.2506 7.90713 37.6458 7.99338 38.0131 8.15333C38.3803 8.31328 38.7126 8.54396 38.9907 8.83228C39.2688 9.12061 39.4874 9.46094 39.634 9.83375C39.7806 10.2066 39.8523 10.6044 39.8451 11.0049C39.8379 11.4054 39.7519 11.8007 39.5919 12.168C39.432 12.5353 39.2013 12.8674 38.913 13.1455C38.6246 13.4236 38.2843 13.6422 37.9115 13.7888C37.5387 13.9354 37.1407 14.0072 36.7401 14Z" fill="#F0FF2E"/>
</svg>
