<svg width="48" height="41" viewBox="0 0 48 41" fill="none" xmlns="http://www.w3.org/2000/svg">
<path d="M18.2601 36.2199L18.5301 32.6C18.5301 32 18.6101 31.4 18.6501 30.8C18.7401 29.56 18.8301 28.31 18.9101 27.06C18.914 26.9492 18.9409 26.8403 18.9891 26.7404C19.0373 26.6406 19.1057 26.5519 19.19 26.4799L24.2701 21.79C26.0001 20.2 27.74 18.62 29.46 17.03C30.86 15.75 32.2401 14.4499 33.6301 13.1699L37.83 9.34002L38.3901 8.77997C38.4237 8.75181 38.4508 8.71668 38.4693 8.67694C38.4879 8.6372 38.4975 8.59384 38.4975 8.54999C38.4975 8.50613 38.4879 8.46277 38.4693 8.42303C38.4508 8.3833 38.4237 8.34816 38.3901 8.32001C38.3669 8.28264 38.3362 8.25051 38.3 8.22552C38.2638 8.20054 38.2228 8.18319 38.1796 8.17474C38.1365 8.1663 38.0921 8.16671 38.0492 8.17621C38.0062 8.18571 37.9657 8.20405 37.9301 8.22992L36.9301 8.84003L33.7401 10.78L30.8601 12.56L27.71 14.4699C26.53 15.1899 25.36 15.9198 24.19 16.6498L21.3001 18.3998L18.1501 20.34L15.2601 22.09L12.5501 23.7499C12.4665 23.8084 12.3694 23.8447 12.2679 23.8552C12.1664 23.8657 12.0639 23.8501 11.9701 23.81C10.3901 23.25 8.81005 22.7199 7.22005 22.1899C6.08005 21.8099 4.93012 21.44 3.79012 21.05C2.96012 20.77 2.14003 20.4799 1.32003 20.1699C1.06231 20.0735 0.83961 19.9019 0.680867 19.6772C0.522125 19.4524 0.434801 19.185 0.430135 18.9098C0.402755 18.6492 0.448035 18.3861 0.560994 18.1496C0.673953 17.9131 0.850075 17.7125 1.07003 17.57C1.24599 17.4539 1.43375 17.3567 1.63009 17.28L6.63009 15.3798L11.1601 13.6398L16.2201 11.7099L21.0001 9.86004L26.09 7.91986L31.0301 6.03998L36.5601 3.89984L41.4301 2.04999C42.3201 1.70999 43.2101 1.34999 44.1101 1.04999C44.4672 0.922811 44.8495 0.882845 45.2252 0.933287C45.6009 0.98373 45.9592 1.12316 46.2701 1.34003C46.6871 1.60618 47.0142 1.99181 47.2087 2.44671C47.4031 2.90162 47.4559 3.40447 47.3601 3.88983C47.1201 5.01983 46.8601 6.14996 46.6201 7.26996C46.2501 8.98996 45.8901 10.6999 45.5201 12.4199L44.8001 15.6398L43.6001 21.05L41.6001 30.1398L39.95 37.6899C39.88 37.9999 39.7901 38.3101 39.7301 38.6201C39.6575 38.9644 39.4955 39.2834 39.2602 39.5451C39.0249 39.8068 38.7246 40.0017 38.3899 40.1103C38.0551 40.2188 37.6976 40.2371 37.3535 40.1633C37.0094 40.0895 36.6909 39.9262 36.4301 39.6899C34.8501 38.4699 33.2401 37.28 31.6401 36.07L26.6401 32.27C26.3501 32.05 26.0601 31.8501 25.7901 31.6201C25.5201 31.3901 25.5501 31.5201 25.4201 31.6201C24.7701 32.2801 24.1001 32.9201 23.4201 33.6201L20.7801 36.2199L19.6501 37.34C19.5601 37.4374 19.4483 37.5119 19.3239 37.5578C19.1995 37.6037 19.066 37.6195 18.9343 37.6039C18.8026 37.5883 18.6765 37.5419 18.5662 37.4682C18.456 37.3945 18.3649 37.2956 18.3001 37.1799C18.2332 36.9941 18.2026 36.7974 18.21 36.6C18.21 36.49 18.21 36.3699 18.21 36.2499L18.2601 36.2199Z" fill="#F0FF2E"/>
</svg>
